<svg xmlns="http://www.w3.org/2000/svg" xmlns:xlink="http://www.w3.org/1999/xlink" viewBox="0 0 1369 672"><defs><style>.cls-1{fill:none;}.cls-11,.cls-13,.cls-16,.cls-2,.cls-3,.cls-4,.cls-7,.cls-9{opacity:0.34;}.cls-2{fill:url(#linear-gradient);}.cls-3{fill:url(#linear-gradient-2);}.cls-4{fill:url(#linear-gradient-3);}.cls-10,.cls-12,.cls-14,.cls-15,.cls-17,.cls-5,.cls-6,.cls-8{opacity:0.23;}.cls-5{fill:url(#linear-gradient-4);}.cls-6{fill:url(#linear-gradient-5);}.cls-7{fill:url(#linear-gradient-6);}.cls-8{fill:url(#linear-gradient-7);}.cls-9{fill:url(#linear-gradient-8);}.cls-10{fill:url(#linear-gradient-9);}.cls-11{fill:url(#linear-gradient-10);}.cls-12{fill:url(#linear-gradient-11);}.cls-13{fill:url(#linear-gradient-12);}.cls-14{fill:url(#linear-gradient-13);}.cls-15{fill:url(#linear-gradient-14);}.cls-16{fill:url(#linear-gradient-15);}.cls-17{fill:url(#linear-gradient-16);}.cls-18{fill:url(#linear-gradient-17);}</style><linearGradient id="linear-gradient" x1="1487.05" y1="-195.11" x2="-113.91" y2="729.2" gradientUnits="userSpaceOnUse"><stop offset="0" stop-color="#6af4ff"/><stop offset="1" stop-color="#7f92ff"/></linearGradient><linearGradient id="linear-gradient-2" x1="1828.8" y1="396.82" x2="227.84" y2="1321.13" xlink:href="#linear-gradient"/><linearGradient id="linear-gradient-3" x1="1538.48" y1="-106.02" x2="-62.47" y2="818.29" xlink:href="#linear-gradient"/><linearGradient id="linear-gradient-4" x1="1347.62" y1="-183.01" x2="-199.84" y2="710.41" xlink:href="#linear-gradient"/><linearGradient id="linear-gradient-5" x1="1499.62" y1="80.25" x2="-47.84" y2="973.68" xlink:href="#linear-gradient"/><linearGradient id="linear-gradient-6" x1="1735.47" y1="235.18" x2="134.52" y2="1159.49" xlink:href="#linear-gradient"/><linearGradient id="linear-gradient-7" x1="1625.67" y1="298.58" x2="78.21" y2="1192" xlink:href="#linear-gradient"/><linearGradient id="linear-gradient-8" x1="1562.24" y1="-64.88" x2="-38.72" y2="859.43" xlink:href="#linear-gradient"/><linearGradient id="linear-gradient-9" x1="1452.43" y1="-1.48" x2="-95.03" y2="891.94" xlink:href="#linear-gradient"/><linearGradient id="linear-gradient-10" x1="1471.67" y1="-221.74" x2="-129.28" y2="702.57" xlink:href="#linear-gradient"/><linearGradient id="linear-gradient-11" x1="1361.86" y1="-158.34" x2="-185.59" y2="735.08" xlink:href="#linear-gradient"/><linearGradient id="linear-gradient-12" x1="1657.85" y1="100.73" x2="56.89" y2="1025.04" xlink:href="#linear-gradient"/><linearGradient id="linear-gradient-13" x1="1359.58" y1="-162.29" x2="-187.88" y2="731.13" xlink:href="#linear-gradient"/><linearGradient id="linear-gradient-14" x1="1518.08" y1="112.22" x2="-29.38" y2="1005.65" xlink:href="#linear-gradient"/><linearGradient id="linear-gradient-15" x1="1642.56" y1="74.24" x2="41.6" y2="998.55" xlink:href="#linear-gradient"/><linearGradient id="linear-gradient-16" x1="1532.75" y1="137.64" x2="-14.71" y2="1031.06" xlink:href="#linear-gradient"/><linearGradient id="linear-gradient-17" x1="1527.14" y1="114.07" x2="132.74" y2="919.13" xlink:href="#linear-gradient"/></defs><title>Asset 5</title><g id="Layer_2" data-name="Layer 2"><g id="Hero"><path class="cls-1" d="M255.3,372.66c141.57-164.22,280.52-174.91,384.59-144C808,202.95,933.34,377.13,933.34,377.13a438.61,438.61,0,0,0,31.61,32.12,202,202,0,0,0,33.28,2.17C1144,408.83,1294.12,250,1360.08,0H0V518.1C60.28,508.77,152.61,491.77,255.3,372.66Z"/><path class="cls-2" d="M0,654v18H1.5l-.06-18Z"/><path class="cls-3" d="M1366.5,672h2.5V654h-2.49Q1366.51,663,1366.5,672Z"/><path class="cls-4" d="M815.21,334.24c60.63,52.14,113.15,69.62,149.74,75a438.61,438.61,0,0,1-31.61-32.12S808,202.95,639.88,228.65C745.52,260,815.21,334.24,815.21,334.24Z"/><path class="cls-5" d="M1,530c44.92,21.79,112.19,45.36,188.65,34.05,27.84-4.12,65.18-8.91,108.41-29.35C327.19,509,358,474,389.92,425.78c87-131.64,173-185.36,250-197.13-104.06-30.9-243-20.21-384.59,144C152.61,491.77,60.28,508.77,0,518.1V601l1.25.43Q1.13,565.73,1,530Z"/><path class="cls-6" d="M998.22,411.43a202,202,0,0,1-33.28-2.17c45.67,41.7,85.11,57.44,114.13,62.94C1208.22,443.41,1333,281.82,1367,48q-.08,98-.16,195.9,1.08-2.18,2.16-4.38V0h-8.92C1294.12,250,1144,408.83,998.22,411.43Z"/><path class="cls-7" d="M1366.51,654H1369V239.53q-1.08,2.2-2.16,4.38Q1366.68,449,1366.51,654Z"/><path class="cls-8" d="M1366.51,654H1369V239.53q-1.08,2.2-2.16,4.38Q1366.68,449,1366.51,654Z"/><path class="cls-9" d="M389.92,425.78C358,474,327.19,509,298.06,534.71,333.28,518.06,372.41,491,413.5,445.5c241-267,473-31,473-31,69.9,57.4,127,62.75,154.61,62.28a189.17,189.17,0,0,0,38-4.58c-29-5.5-68.46-21.24-114.13-62.94-36.58-5.39-89.1-22.88-149.74-75,0,0-69.69-74.22-175.33-105.59C562.88,240.42,476.91,294.14,389.92,425.78Z"/><path class="cls-10" d="M389.92,425.78C358,474,327.19,509,298.06,534.71,333.28,518.06,372.41,491,413.5,445.5c241-267,473-31,473-31,69.9,57.4,127,62.75,154.61,62.28a189.17,189.17,0,0,0,38-4.58c-29-5.5-68.46-21.24-114.13-62.94-36.58-5.39-89.1-22.88-149.74-75,0,0-69.69-74.22-175.33-105.59C562.88,240.42,476.91,294.14,389.92,425.78Z"/><path class="cls-11" d="M1.25,601.46,0,601v53H1.44Q1.34,627.73,1.25,601.46Z"/><path class="cls-12" d="M1.25,601.46,0,601v53H1.44Q1.34,627.73,1.25,601.46Z"/><path class="cls-13" d="M1.44,654l.06,18h1365q0-9,0-18Z"/><path class="cls-14" d="M132.74,611.82c40.45-8.17,98.35-18,165.32-77.11-43.23,20.44-80.57,25.23-108.41,29.35C113.19,575.36,45.92,551.79,1,530q.13,35.73.25,71.46C40.34,614.93,85,621.46,132.74,611.82Z"/><path class="cls-15" d="M1111,474.87c91.19-2.12,184.17-86.47,255.88-231q.08-98,.16-195.9c-34,233.82-158.78,395.41-287.93,424.2A151,151,0,0,0,1111,474.87Z"/><path class="cls-16" d="M886.5,414.5s-232-236-473,31c-41.09,45.53-80.22,72.56-115.44,89.21-67,59.08-124.87,68.95-165.32,77.11C85,621.46,40.34,614.93,1.25,601.46q.09,26.27.18,52.54H1366.51q.16-205,.33-410.1c-71.71,144.49-164.69,228.84-255.88,231a151,151,0,0,1-31.89-2.67,189.17,189.17,0,0,1-38,4.58C1013.53,477.25,956.4,471.9,886.5,414.5Z"/><path class="cls-17" d="M886.5,414.5s-232-236-473,31c-41.09,45.53-80.22,72.56-115.44,89.21-67,59.08-124.87,68.95-165.32,77.11C85,621.46,40.34,614.93,1.25,601.46q.09,26.27.18,52.54H1366.51q.16-205,.33-410.1c-71.71,144.49-164.69,228.84-255.88,231a151,151,0,0,1-31.89-2.67,189.17,189.17,0,0,1-38,4.58C1013.53,477.25,956.4,471.9,886.5,414.5Z"/><path class="cls-18" d="M1079.07,472.2a189.17,189.17,0,0,1-38,4.58c-27.58.47-84.71-4.88-154.61-62.28,0,0-232-236-473,31-41.09,45.53-80.22,72.56-115.44,89.21-43.23,20.44-80.57,25.23-108.41,29.35C113.19,575.36,45.92,551.79,1,530q.13,35.73.25,71.46.09,26.27.18,52.54l.06,18h1365q0-9,0-18,.16-205,.33-410.1.08-98,.16-195.9C1333,281.82,1208.22,443.41,1079.07,472.2Z"/></g></g></svg>